# File created by Blade
# Date/Time:  Tue Apr 07 21:12:38 2015
# Frame Rate: 120.000 fps
#------------------------------------------------------
:FULLY-SPECIFIED
:DEGREES
1697
root 24.956619 16.732750 8.612017 750.231929 -60.525899 -659.157241
Spine 3.748742 -8.881608 19.000620
Head -58.294316 -9.410061 2.987703
LeftShoulder 180.298706 160.653249 211.066821
LeftArm 97.490485 -19.439488 -73.213285
LeftForeArm 30.887878 -0.000000 76.707121
LeftHand 18.431478 -0.000000 34.836992
LeftHandThumb1 -26.253704 0.000000 33.147579
RightShoulder 15.312343 25.641312 -28.356220
RightArm 31.973988 34.891819 59.839746
RightForeArm -32.675449 -0.000000 109.779249
RightHand 3.795282 0.000000 -11.145528
RightHandThumb1 -24.326973 -0.000000 -32.862282
LeftUpLeg -9.587725 1.059043 5.662279
LeftLeg 19.349737 -0.000000 -0.000000
LeftFoot 38.293975 24.625607 -11.940194
LeftToeBase -0.852965 -0.000000 0.000000
RightUpLeg -102.121236 -8.875447 0.748040
RightLeg 110.703478 -0.000000 -0.000000
RightFoot 43.575657 2.246540 16.883252
RightToeBase 30.790528 -0.000000 -0.000000
1698
root 24.976201 16.743148 8.662569 750.084991 -60.556286 -659.141733
Spine 3.546437 -8.839760 18.963291
Head -58.309319 -9.497643 2.823778
LeftShoulder 180.354667 160.876178 211.116524
LeftArm 97.462785 -19.339950 -72.667774
LeftForeArm 30.700235 -0.000000 75.625912
LeftHand 18.745749 -0.000000 35.546624
LeftHandThumb1 -26.253704 0.000000 33.147579
RightShoulder 15.276242 25.426190 -28.416149
RightArm 31.964460 34.623910 59.904930
RightForeArm -33.372010 -0.000000 109.044256
RightHand 4.120468 0.000000 -12.491398
RightHandThumb1 -24.326973 -0.000000 -32.862282
LeftUpLeg -9.558141 0.927015 5.609079
LeftLeg 19.616400 -0.000000 -0.000000
LeftFoot 38.233010 24.653296 -12.071167
LeftToeBase -0.860349 -0.000000 0.000000
RightUpLeg -101.975401 -9.058815 0.654002
RightLeg 110.746765 -0.000000 -0.000000
RightFoot 43.668647 2.311483 16.757352
RightToeBase 30.747173 -0.000000 -0.000000
1699
root 24.994543 16.750854 8.707498 749.951978 -60.603802 -659.211627
Spine 3.399041 -8.802841 18.923249
Head -58.284453 -9.548547 2.647773
LeftShoulder 180.426472 161.110224 211.178899
LeftArm 97.403682 -19.288924 -72.058839
LeftForeArm 30.490098 -0.000000 74.472034
LeftHand 19.112327 -0.000000 36.407714
LeftHandThumb1 -26.253704 0.000000 33.147579
RightShoulder 15.189553 25.251063 -28.471157
RightArm 32.042464 34.203152 60.114186
RightForeArm -34.248378 0.000000 108.226748
RightHand 4.446757 -0.000000 -13.655742
RightHandThumb1 -24.326973 -0.000000 -32.862282
LeftUpLeg -9.518346 0.945715 5.582694
LeftLeg 19.948687 -0.000000 -0.000000
LeftFoot 38.123459 24.635920 -12.225642
LeftToeBase -1.154083 -0.000000 0.000000
RightUpLeg -101.750493 -9.169125 0.565430
RightLeg 110.800869 -0.000000 -0.000000
RightFoot 43.710265 2.389308 16.676957
RightToeBase 30.815855 -0.000000 -0.000000
1700
root 25.014294 16.756595 8.751155 749.769080 -60.639876 -659.304360
Spine 3.298510 -8.829694 18.883097
Head -58.248994 -9.599947 2.486408
LeftShoulder 180.508285 161.215438 211.236471
LeftArm 97.446702 -19.328726 -71.446772
LeftForeArm 30.233205 -0.000000 73.274075
LeftHand 19.418411 0.000000 37.151557
LeftHandThumb1 -26.253704 0.000000 33.147579
RightShoulder 15.068987 25.113832 -28.546958
RightArm 32.164432 33.633791 60.424583
RightForeArm -35.265681 -0.000000 107.310322
RightHand 4.775009 -0.000000 -14.681864
RightHandThumb1 -24.326973 -0.000000 -32.862282
LeftUpLeg -9.435913 0.956073 5.567985
LeftLeg 20.294316 -0.000000 -0.000000
LeftFoot 37.995937 24.608477 -12.379606
LeftToeBase -1.399527 -0.000000 0.000000
RightUpLeg -101.449153 -9.264878 0.474449
RightLeg 110.874591 -0.000000 -0.000000
RightFoot 43.769315 2.538106 16.478385
RightToeBase 30.809306 -0.000000 -0.000000
1701
root 25.034477 16.762659 8.793593 749.553837 -60.626819 -659.380309
Spine 3.181212 -8.940617 18.849018
Head -58.188024 -9.611963 2.333653
LeftShoulder 180.590127 161.336587 211.293384
LeftArm 97.401200 -19.377687 -70.783448
LeftForeArm 29.934230 -0.000000 72.122695
LeftHand 19.519151 -0.000000 37.679395
LeftHandThumb1 -26.253704 0.000000 33.147579
RightShoulder 14.904850 24.928714 -28.601790
RightArm 32.446443 32.954485 60.797041
RightForeArm -36.191097 0.000000 106.316701
RightHand 5.113873 0.000000 -15.551401
RightHandThumb1 -24.326973 -0.000000 -32.862282
LeftUpLeg -9.400298 0.935853 5.563059
LeftLeg 20.693108 -0.000000 -0.000000
LeftFoot 37.867313 24.654015 -12.562267
LeftToeBase -1.593605 -0.000000 0.000000
RightUpLeg -101.130484 -9.406850 0.377679
RightLeg 110.959116 -0.000000 -0.000000
RightFoot 43.866862 2.652906 16.390708
RightToeBase 30.764710 -0.000000 -0.000000
1702
root 25.052418 16.753053 8.830615 749.338489 -60.562600 -659.652759
Spine 3.204604 -9.139280 18.877576
Head -58.105166 -9.563719 2.200793
LeftShoulder 180.659718 161.325700 211.369460
LeftArm 97.503837 -19.435920 -70.175685
LeftForeArm 29.556578 0.000000 70.841397
LeftHand 19.811156 -0.000000 38.305184
LeftHandThumb1 -26.253704 0.000000 33.147579
RightShoulder 14.732212 24.724908 -28.644582
RightArm 32.797294 32.206332 61.277989
RightForeArm -37.010287 -0.000000 105.281312
RightHand 5.373986 -0.000000 -16.318970
RightHandThumb1 -24.326973 -0.000000 -32.862282
LeftUpLeg -9.224192 1.055837 5.684107
LeftLeg 21.155837 -0.000000 -0.000000
LeftFoot 37.662801 24.682838 -12.782607
LeftToeBase -2.033120 -0.000000 0.000000
RightUpLeg -100.565623 -9.384324 0.190361
RightLeg 111.092907 -0.000000 -0.000000
RightFoot 43.810851 2.784178 16.566621
RightToeBase 30.763856 -0.000000 -0.000000
1703
root 25.071494 16.756103 8.867823 749.130425 -60.584431 -659.876833
Spine 3.181193 -9.324826 18.841727
Head -57.975069 -9.463579 2.047552
LeftShoulder 180.716113 161.114334 211.502003
LeftArm 97.775019 -19.521959 -69.705283
LeftForeArm 29.209844 -0.000000 69.483629
LeftHand 20.202700 -0.000000 38.972432
LeftHandThumb1 -26.253704 0.000000 33.147579
RightShoulder 14.683070 24.524895 -28.662892
RightArm 33.107156 31.531866 61.711203
RightForeArm -37.739022 -0.000000 104.189405
RightHand 5.730816 -0.000000 -17.161558
RightHandThumb1 -24.326973 -0.000000 -32.862282
LeftUpLeg -9.147246 1.138026 5.727737
LeftLeg 21.669380 -0.000000 -0.000000
LeftFoot 37.585768 24.703662 -12.959263
LeftToeBase -2.231881 -0.000000 0.000000
RightUpLeg -100.124983 -9.442568 0.111194
RightLeg 111.175423 -0.000000 -0.000000
RightFoot 43.961822 2.867737 16.524886
RightToeBase 30.590021 -0.000000 -0.000000
1704
root 25.092032 16.764174 8.901264 748.943688 -60.639617 -660.135944
Spine 3.160995 -9.554542 18.788165
Head -57.817949 -9.320964 1.937502
LeftShoulder 180.756141 160.516331 211.828079
LeftArm 98.306527 -19.610148 -69.610625
LeftForeArm 29.160026 -0.000000 68.237353
LeftHand 20.396153 -0.000000 39.443922
LeftHandThumb1 -26.253704 0.000000 33.147579
RightShoulder 14.706225 24.497815 -28.623782
RightArm 33.254835 30.784940 62.071923
RightForeArm -38.283308 -0.000000 103.026790
RightHand 6.112054 -0.000000 -18.001648
RightHandThumb1 -24.326973 -0.000000 -32.862282
LeftUpLeg -9.130245 1.238971 5.763830
LeftLeg 22.253326 -0.000000 -0.000000
LeftFoot 37.514821 24.748397 -12.986032
LeftToeBase -2.308879 -0.000000 0.000000
RightUpLeg -99.710245 -9.505531 0.071336
RightLeg 111.251855 -0.000000 -0.000000
RightFoot 44.090561 2.926712 16.458731
RightToeBase 30.613368 -0.000000 -0.000000
